# xmcd
#
# Track frame offsets: 
#        150
#        31872
#        103223
#        118092
#        140924
#
# Disc length: 2567 seconds
#
# Revision: 0
# Processed by: cddbd v1.5.1PL2 Copyright (c) Steve Scherf et al.
# Submitted via: ExactAudioCopy v0.95a5
#
DISCID=460a0505
DTITLE=Birchville Cat Motel - Our Love Will Destroy the World
DYEAR=2006
DGENRE=Roll
TTITLE0=Heavens Flaming Horse
TTITLE1=55,000 Flowers for the Hero
TTITLE2=Lay Thy Hatred Down
TTITLE3=Double Cascade Mini Fantasy
TTITLE4=Our Love Will Destroy the World
EXTD=
EXTT0=
EXTT1=
EXTT2=
EXTT3=
EXTT4=
PLAYORDER=
